<?xml version="1.0" encoding="utf-8"?>
<!-- Generator: Adobe Illustrator 23.1.0, SVG Export Plug-In . SVG Version: 6.00 Build 0)  -->
<svg version="1.1" id="Layer_1" xmlns="http://www.w3.org/2000/svg" xmlns:xlink="http://www.w3.org/1999/xlink" x="0px" y="0px"
	 viewBox="0 0 675.63 283.44" style="enable-background:new 0 0 675.63 283.44;" xml:space="preserve">
<g>
	<path d="M125.84,81.33l65.96,84.86V80.65h14.42v108.94h-13.46l-65.96-84.86v85.54h-14.28V81.33H125.84z"/>
	<path d="M284.96,115.87c6.07,3.54,10.81,8.41,14.21,14.62c3.4,6.21,5.1,13.17,5.1,20.88c0,7.71-1.7,14.67-5.1,20.88
		c-3.4,6.21-8.14,11.08-14.21,14.62c-6.08,3.54-12.88,5.3-20.4,5.3c-7.62,0-14.44-1.77-20.47-5.3c-6.03-3.54-10.77-8.41-14.21-14.62
		c-3.45-6.21-5.17-13.17-5.17-20.88c0-7.71,1.72-14.66,5.17-20.88c3.44-6.21,8.18-11.08,14.21-14.62c6.03-3.54,12.85-5.3,20.47-5.3
		C272.09,110.57,278.89,112.34,284.96,115.87z M251.03,126.69c-3.94,2.49-7.03,5.89-9.25,10.2c-2.22,4.31-3.33,9.14-3.33,14.48
		c0,5.35,1.11,10.18,3.33,14.48c2.22,4.31,5.3,7.71,9.25,10.2c3.94,2.49,8.45,3.74,13.53,3.74c4.98,0,9.47-1.25,13.46-3.74
		c3.99-2.49,7.07-5.89,9.25-10.2c2.18-4.31,3.26-9.13,3.26-14.48c0-5.35-1.09-10.18-3.26-14.48c-2.18-4.31-5.26-7.71-9.25-10.2
		c-3.99-2.49-8.48-3.74-13.46-3.74C259.48,122.95,254.97,124.19,251.03,126.69z"/>
	<path d="M360.44,124.85h-17.27v65.42h-14.01v-65.42h-17.27v-12.38h17.27V88.81h14.01v23.66h17.27V124.85z"/>
	<path d="M388.53,79.22c1.77,1.77,2.65,3.97,2.65,6.6c0,2.63-0.88,4.83-2.65,6.6s-4.01,2.65-6.73,2.65c-2.63,0-4.83-0.88-6.6-2.65
		s-2.65-3.97-2.65-6.6c0-2.63,0.88-4.83,2.65-6.6s3.97-2.65,6.6-2.65C384.51,76.57,386.76,77.45,388.53,79.22z M374.86,190.4v-77.93
		h14.01v77.93H374.86z"/>
	<path d="M467.07,115.87c6.07,3.54,10.81,8.41,14.21,14.62c3.4,6.21,5.1,13.17,5.1,20.88c0,7.71-1.7,14.67-5.1,20.88
		c-3.4,6.21-8.14,11.08-14.21,14.62c-6.08,3.54-12.88,5.3-20.4,5.3c-7.62,0-14.44-1.77-20.47-5.3c-6.03-3.54-10.77-8.41-14.21-14.62
		c-3.45-6.21-5.17-13.17-5.17-20.88c0-7.71,1.72-14.66,5.17-20.88c3.44-6.21,8.18-11.08,14.21-14.62c6.03-3.54,12.85-5.3,20.47-5.3
		C454.19,110.57,460.99,112.34,467.07,115.87z M433.13,126.69c-3.94,2.49-7.03,5.89-9.25,10.2c-2.22,4.31-3.33,9.14-3.33,14.48
		c0,5.35,1.11,10.18,3.33,14.48c2.22,4.31,5.3,7.71,9.25,10.2c3.94,2.49,8.45,3.74,13.53,3.74c4.98,0,9.47-1.25,13.46-3.74
		c3.99-2.49,7.07-5.89,9.25-10.2c2.18-4.31,3.26-9.13,3.26-14.48c0-5.35-1.09-10.18-3.26-14.48c-2.18-4.31-5.26-7.71-9.25-10.2
		c-3.99-2.49-8.48-3.74-13.46-3.74C441.59,122.95,437.08,124.19,433.13,126.69z"/>
	<path d="M518.34,112.47v11.83c1.99-3.54,5.28-6.71,9.86-9.52c4.58-2.81,10.09-4.22,16.52-4.22c6.07,0,11.49,1.41,16.25,4.22
		c4.76,2.81,8.45,6.78,11.08,11.9c2.63,5.12,3.94,11.13,3.94,18.02v45.56h-14.01v-43.11c0-7.8-1.79-13.8-5.37-18.02
		c-3.58-4.22-8.55-6.32-14.89-6.32c-4.44,0-8.43,1.25-11.97,3.74c-3.54,2.5-6.32,5.83-8.36,10c-2.04,4.17-3.06,8.66-3.06,13.46
		v40.26h-14.01v-77.79H518.34z"/>
</g>
</svg>
